<?xml version="1.0" encoding="UTF-8"?>
<svg width="20px" height="20px" viewBox="0 0 20 20" version="1.1" xmlns="http://www.w3.org/2000/svg" xmlns:xlink="http://www.w3.org/1999/xlink">
    <!-- Generator: Sketch 48.1 (47250) - http://www.bohemiancoding.com/sketch -->
    <title>Like</title>
    <desc>Created with Sketch.</desc>
    <defs></defs>
    <g id="icons" stroke="none" stroke-width="1" fill="none" fill-rule="evenodd" transform="translate(-55.000000, -887.000000)">
        <path d="M61,901.033333 C61.022284,903.011111 63.011142,904 65,904 L70.4844356,904 C71.6359042,904 72.6071779,903.142577 72.75,902 C72.7591511,901.926791 72.76374,901.853083 72.76374,901.779304 C72.76374,901.451204 72.6749347,901.143845 72.5200494,900.879954 C73.4415948,900.577717 74.1377198,899.760521 74.25,898.75 C74.2557011,898.69869 74.2595108,898.647188 74.2614216,898.595599 C74.2798324,898.098507 74.1241631,897.635333 73.8489681,897.264828 C74.5394083,896.857264 75,896.105725 75,895.25 C75,894.007359 73.9926407,893 72.75,893 L67.9332023,893 C68.8613221,891.912478 69.5,890.778503 69.5,890 C69.5,888.3 69,887 67.28125,887 C65.5625,887 65.2224693,888.7 64.90625,889.833333 C64.6017486,890.92467 63.5693544,892.122708 61.8090672,893.427449 C61.3001372,893.804672 61.0000136,894.400704 61.0000136,895.034192 L61,901.033333 Z M57,894 L59,894 C59.5522847,894 60,894.447715 60,895 L60,902 C60,903.104569 59.1045695,904 58,904 C56.8954305,904 56,903.104569 56,902 L56,895 C56,894.447715 56.4477153,894 57,894 Z" id="Like" fill="#FFFFFF"></path>
    </g>
</svg>