<?xml version="1.0" encoding="UTF-8"?>
<svg width="20px" height="20px" viewBox="0 0 20 20" version="1.1" xmlns="http://www.w3.org/2000/svg" xmlns:xlink="http://www.w3.org/1999/xlink">
    <!-- Generator: Sketch 48.1 (47250) - http://www.bohemiancoding.com/sketch -->
    <title>Posts</title>
    <desc>Created with Sketch.</desc>
    <defs></defs>
    <g id="icons" stroke="none" stroke-width="1" fill="none" fill-rule="evenodd" transform="translate(-98.000000, -887.000000)">
        <path d="M113,906 C110.868175,906 109.64347,904.852877 108.678789,902.99994 L105.99983,902.99994 C102.133931,902.99994 99,899.865947 99,895.99997 C99,892.133993 102.133931,889 105.99983,889 L110.00017,889 C113.866069,889 117,892.133993 117,895.99997 C117,898.792392 115.364942,901.202919 113,902.326358 L113,906 Z M104,896.99983 C104.552285,896.99983 105,896.552105 105,895.999809 C105,895.447513 104.552285,894.999788 104,894.999788 C103.447715,894.999788 103,895.447513 103,895.999809 C103,896.552105 103.447715,896.99983 104,896.99983 Z M108,896.99983 C108.552285,896.99983 109,896.552105 109,895.999809 C109,895.447513 108.552285,894.999788 108,894.999788 C107.447715,894.999788 107,895.447513 107,895.999809 C107,896.552105 107.447715,896.99983 108,896.99983 Z M112,896.99983 C112.552285,896.99983 113,896.552105 113,895.999809 C113,895.447513 112.552285,894.999788 112,894.999788 C111.447715,894.999788 111,895.447513 111,895.999809 C111,896.552105 111.447715,896.99983 112,896.99983 Z" id="posts" fill="#FFFFFF"></path>
    </g>
</svg>